<svg xmlns="http://www.w3.org/2000/svg" version="1.1" xmlns:xlink="http://www.w3.org/1999/xlink" xmlns:svgjs="http://svgjs.dev/svgjs" width="2000" height="1250" viewBox="0 0 2000 1250"><g transform="matrix(1,0,0,1,0,0)"><svg viewBox="0 0 576 360" data-background-color="#ffffff" preserveAspectRatio="xMidYMid meet" height="1250" width="2000" xmlns="http://www.w3.org/2000/svg" xmlns:xlink="http://www.w3.org/1999/xlink"><g id="tight-bounds" transform="matrix(1,0,0,1,0,0)"><svg viewBox="0 0 576 360" height="360" width="576"><g><svg></svg></g><g><svg viewBox="0 0 576 360" height="360" width="576"><g><path xmlns="http://www.w3.org/2000/svg" d="M132.115 90l155.885-90 155.885 90v180l-155.885 90-155.885-90z" fill="#ffffff" fill-rule="nonzero" stroke="none" stroke-width="1" stroke-linecap="butt" stroke-linejoin="miter" stroke-miterlimit="10" stroke-dasharray="" stroke-dashoffset="0" font-family="none" font-weight="none" font-size="none" text-anchor="none" style="mix-blend-mode: normal" data-fill-palette-color="tertiary"></path></g><g transform="matrix(1,0,0,1,172.8,125.02193120101185)"><svg viewBox="0 0 230.4 109.95613759797628" height="109.95613759797628" width="230.4"><g><svg viewBox="0 0 230.4 109.95613759797628" height="109.95613759797628" width="230.4"><g><svg viewBox="0 0 230.40000000000003 109.9561375979763" height="109.95613759797628" width="230.4"><g><svg viewBox="0 0 230.40000000000003 109.9561375979763" height="109.9561375979763" width="230.40000000000003"><g id="textblocktransform"><svg viewBox="0 0 230.40000000000003 109.9561375979763" height="109.9561375979763" width="230.40000000000003" id="textblock"><g><svg viewBox="0 0 230.40000000000003 77.4645241038319" height="77.4645241038319" width="230.40000000000003"><g transform="matrix(1,0,0,1,0,0)"><svg width="230.40000000000003" viewBox="1.7999999523162842 -26.149999618530273 80.89999389648438 27.19999885559082" height="77.4645241038319" data-palette-color="#ffffff"><path d="M32.85-22.7L32.85-22.7Q32.85-24.05 32.45-25L32.45-25 46.7-25Q48.5-20.2 49.38-13.25 50.25-6.3 50.3 0L50.3 0 38.75 0Q38.4-9 35.8-17.35L35.8-17.35Q31.45-8.85 31.1 0L31.1 0 21.3 0Q20-9.8 16.3-17.4L16.3-17.4Q13.6-11.05 13.6-5.6L13.6-5.6Q13.6-2.65 14.3 0L14.3 0 2.15 0Q1.8-2.05 1.8-5.43 1.8-8.8 2.8-12.2L2.8-12.2Q6.35-13.25 9.63-15.65 12.9-18.05 14.45-20.9L14.45-20.9Q13.15-23.05 11.7-25L11.7-25 27.5-25Q29.4-19.85 30.35-13.8L30.35-13.8Q32.85-18.45 32.85-22.7ZM75.05-21.95L75.05-21.95Q73.3-22.25 71.67-22.25 70.05-22.25 67.75-21.7L67.75-21.7Q67-18.55 67-15.55L67-15.55Q67-7.8 73.9-3.65L73.9-3.65Q78.5-6.7 82.2-11.25L82.2-11.25Q82.35-9.25 82.45-5.15L82.45-5.15Q78.75-2.25 74.9-0.6 71.05 1.05 65.3 1.05L65.3 1.05 64.15 1.05Q59.65-0.9 57.07-4.7 54.5-8.5 54.5-12.7L54.5-12.7Q54.5-18.3 59.1-22.23 63.7-26.15 72.45-26.15L72.45-26.15Q77.35-26.15 82.7-24.9L82.7-24.9Q81.9-21.75 80.7-18.95L80.7-18.95Q77.55-18.65 74.2-18.65L74.2-18.65Q74.7-20.05 75.05-21.95Z" opacity="1" transform="matrix(1,0,0,1,0,0)" fill="#000000" class="undefined-text-0" data-fill-palette-color="quaternary" id="text-0"></path></svg></g></svg></g><g transform="matrix(1,0,0,1,0,95.75203909616812)"><svg viewBox="0 0 230.40000000000003 14.204098501808167" height="14.204098501808167" width="230.40000000000003"><g transform="matrix(1,0,0,1,0,0)"><svg width="230.40000000000003" viewBox="0 -35.79999923706055 580.6599731445312 35.79999923706055" height="14.204098501808167" data-palette-color="#ffffff"><path d="M10.75-2.15L30.2-2.15 30.2 0 0 0 0-2.15 4.85-2.15 4.85-34.95 28.15-34.95 28.1-29.45 10.75-29.45 10.75-19.85 26.25-19.85 26.25-14.4 10.75-14.4 10.75-2.15ZM63-2.15L67.85-2.15 67.85 0 57.05 0 48.7-11.75 40.95-11.75 40.95 0 30.2 0 30.2-2.15 35.05-2.15 35.05-34.95 48.05-34.95Q56.05-34.95 59.5-32.25 62.95-29.55 62.95-23.6L62.95-23.6Q62.95-14.95 55.4-12.7L55.4-12.7 63-2.15ZM48.3-17.1Q53.3-17.1 55.1-18.65 56.9-20.2 56.9-23.63 56.9-27.05 55.05-28.33 53.2-29.6 48.45-29.6L48.45-29.6 40.95-29.6 40.95-17.1 48.3-17.1ZM97.14-2.15L108.59-2.15 108.59 0 66.59 0 66.59-2.15 78.05-2.15Q73.94-4.5 71.57-8.6 69.19-12.7 69.19-17.75L69.19-17.75Q69.19-25.45 74.5-30.63 79.8-35.8 87.59-35.8 95.39-35.8 100.69-30.63 106-25.45 106-17.75L106-17.75Q106-12.75 103.62-8.6 101.25-4.45 97.14-2.15L97.14-2.15ZM96.37-26.7Q92.8-30.4 87.59-30.4 82.39-30.4 78.82-26.7 75.25-23 75.25-17.73 75.25-12.45 78.82-8.75 82.39-5.05 87.59-5.05 92.8-5.05 96.37-8.75 99.94-12.45 99.94-17.73 99.94-23 96.37-26.7ZM108.59-2.15L113.44-2.15 113.44-34.95 119.34-34.95 139.64-8.85 139.64-34.95 145.54-34.95 145.54-2.15 150.39-2.15 150.39 0 139.14 0 119.34-25.5 119.34 0 108.59 0 108.59-2.15ZM168.44-2.15L180.59-2.15 180.59 0 150.39 0 150.39-2.15 162.54-2.15 162.54-29.55 151.94-29.55 151.94-34.95 179.04-34.95 179.04-29.55 168.44-29.55 168.44-2.15ZM180.59-2.15L185.44-2.15 185.44-34.95 209.99-34.95 209.99-29.4 191.34-29.4 191.34-20.15 208.09-20.15 208.09-14.9 191.34-14.9 191.34-5.55 210.59-5.55 210.59-2.15 215.44-2.15 215.44 0 180.59 0 180.59-2.15ZM213.29-2.15L218.14-2.15 218.14-34.95 224.04-34.95 244.34-8.85 244.34-34.95 250.24-34.95 250.24-2.15 255.09-2.15 255.09 0 243.84 0 224.04-25.5 224.04 0 213.29 0 213.29-2.15ZM282.63-2.15L294.18-2.15 294.18 0 255.08 0 255.08-2.15 259.93-2.15 259.93-34.95 271.93-34.95Q281.33-34.95 286.38-30.38 291.43-25.8 291.43-17.5L291.43-17.5Q291.43-6.35 282.63-2.15L282.63-2.15ZM285.48-17.5L285.48-17.5Q285.48-29.5 271.73-29.5L271.73-29.5 265.83-29.5 265.83-5.55 272.38-5.55Q278.73-5.55 282.11-8.58 285.48-11.6 285.48-17.5ZM294.18-2.15L307.88-2.15 307.88 0 294.18 0 294.18-2.15ZM307.88-2.15L312.73-2.15 312.73-34.95 337.28-34.95 337.28-29.4 318.63-29.4 318.63-20.15 335.38-20.15 335.38-14.9 318.63-14.9 318.63-5.55 337.88-5.55 337.88-2.15 342.73-2.15 342.73 0 307.88 0 307.88-2.15ZM340.58-2.15L345.43-2.15 345.43-34.95 351.33-34.95 371.63-8.85 371.63-34.95 377.53-34.95 377.53-2.15 382.38-2.15 382.38 0 371.13 0 351.33-25.5 351.33 0 340.58 0 340.58-2.15ZM412.82-2.15L420.22-2.15 420.22 0 382.37 0 382.37-2.15 394.47-2.15Q390.12-4.35 387.55-8.6 384.97-12.85 384.97-18.2L384.97-18.2Q384.97-25.85 390.27-30.83 395.57-35.8 403.15-35.8 410.72-35.8 415.72-31.4L415.72-31.4 412.57-26.9Q410.52-28.65 408.45-29.33 406.37-30 403.62-30L403.62-30Q398.27-30 394.7-26.8 391.12-23.6 391.12-18.05 391.12-12.5 394.62-9.13 398.12-5.75 403.1-5.75 408.07-5.75 411.42-7.9L411.42-7.9 411.42-17.5 417.32-17.5 417.32-5.55Q415.47-3.5 412.82-2.15L412.82-2.15ZM420.22-2.15L425.07-2.15 425.07-34.95 430.97-34.95 430.97-2.15 435.82-2.15 435.82 0 420.22 0 420.22-2.15ZM435.82-2.15L440.67-2.15 440.67-34.95 446.57-34.95 466.87-8.85 466.87-34.95 472.77-34.95 472.77-2.15 477.62-2.15 477.62 0 466.37 0 446.57-25.5 446.57 0 435.82 0 435.82-2.15ZM477.62-2.15L482.47-2.15 482.47-34.95 507.02-34.95 507.02-29.4 488.37-29.4 488.37-20.15 505.12-20.15 505.12-14.9 488.37-14.9 488.37-5.55 507.62-5.55 507.62-2.15 512.47-2.15 512.47 0 477.62 0 477.62-2.15ZM510.31-2.15L515.16-2.15 515.16-34.95 539.71-34.95 539.71-29.4 521.06-29.4 521.06-20.15 537.81-20.15 537.81-14.9 521.06-14.9 521.06-5.55 540.31-5.55 540.31-2.15 545.16-2.15 545.16 0 510.31 0 510.31-2.15ZM575.81-2.15L580.66-2.15 580.66 0 569.86 0 561.51-11.75 553.76-11.75 553.76 0 543.01 0 543.01-2.15 547.86-2.15 547.86-34.95 560.86-34.95Q568.86-34.95 572.31-32.25 575.76-29.55 575.76-23.6L575.76-23.6Q575.76-14.95 568.21-12.7L568.21-12.7 575.81-2.15ZM561.11-17.1Q566.11-17.1 567.91-18.65 569.71-20.2 569.71-23.63 569.71-27.05 567.86-28.33 566.01-29.6 561.26-29.6L561.26-29.6 553.76-29.6 553.76-17.1 561.11-17.1Z" opacity="1" transform="matrix(1,0,0,1,0,0)" fill="#000000" class="undefined-text-1" data-fill-palette-color="quaternary" id="text-1"></path></svg></g></svg></g></svg></g></svg></g></svg></g></svg></g></svg></g></svg></g><defs></defs></svg><rect width="576" height="360" fill="none" stroke="none" visibility="hidden"></rect></g></svg></g></svg>